<svg width="35" height="45" viewBox="0 0 14 17" fill="none" xmlns="http://www.w3.org/2000/svg">
<path d="M8.55556 7.85909C8.8109 7.85909 9.06375 7.8056 9.29966 7.70166C9.53557 7.59772 9.74993 7.44538 9.93049 7.25333C10.111 7.06129 10.2543 6.83329 10.352 6.58237C10.4497 6.33144 10.5 6.06251 10.5 5.79091C10.5 5.24239 10.2951 4.71634 9.93049 4.32848C9.56583 3.94062 9.07125 3.72273 8.55556 3.72273C8.03986 3.72273 7.54528 3.94062 7.18063 4.32848C6.81597 4.71634 6.61111 5.24239 6.61111 5.79091C6.61111 6.06251 6.66141 6.33144 6.75912 6.58237C6.85684 6.83329 7.00007 7.06129 7.18063 7.25333C7.54528 7.64119 8.03986 7.85909 8.55556 7.85909ZM8.55556 0C11.5578 0 14 2.58936 14 5.79091C14 10.1341 8.55556 16.5455 8.55556 16.5455C8.55556 16.5455 3.11111 10.1341 3.11111 5.79091C3.11111 4.25506 3.68472 2.78212 4.70575 1.69612C5.72678 0.610112 7.1116 0 8.55556 0ZM1.55556 5.79091C1.55556 9.51364 5.50667 14.6096 6.22222 15.561L5.44444 16.5455C5.44444 16.5455 0 10.1341 0 5.79091C0 3.16845 1.64111 0.951364 3.88889 0.239909C2.45778 1.60491 1.55556 3.58209 1.55556 5.79091Z" fill="#F15A2D"/>
</svg>
