<svg width="138" height="118" viewBox="0 0 138 118" fill="none" xmlns="http://www.w3.org/2000/svg">
<mask id="mask0" mask-type="alpha" maskUnits="userSpaceOnUse" x="0" y="0" width="138" height="118">
<rect x="0.391357" y="0.317871" width="136.795" height="117.264" fill="white"/>
</mask>
<g mask="url(#mask0)">
<path fill-rule="evenodd" clip-rule="evenodd" d="M64.591 0.317871C69.0651 0.380301 72.4884 1.35837 75.433 3.6995C78.301 6.08691 80.1047 9.51466 80.4482 13.2305C80.8528 16.0689 80.6037 18.9623 79.7198 21.6898C78.2326 26.7906 73.8744 30.5326 68.6073 31.2311C64.9655 31.9611 61.1854 31.4978 57.8277 29.9097C54.1199 28.1573 51.4311 24.7885 50.5442 20.7845C49.1058 15.9339 49.8463 10.6976 52.5732 6.43601C54.2835 3.88386 56.8413 2.0189 59.7943 1.17108C61.3395 0.640798 62.9576 0.352986 64.591 0.317871V0.317871Z" fill="white" stroke="#7140B8"/>
<path fill-rule="evenodd" clip-rule="evenodd" d="M61.5423 4.24047C62.3747 3.08551 62.6452 3.02308 63.9042 3.72021C65.0071 2.39878 66.6719 2.50283 67.9414 3.96994C68.3576 4.45897 68.7321 5.01044 69.1587 5.46826C69.3137 5.63177 69.5123 5.74734 69.731 5.80122C73.5601 6.72726 76.5775 9.96322 76.1509 14.2709C75.9472 15.3511 75.6655 16.4152 75.3081 17.4548C75.2038 17.7938 75.2038 18.1563 75.3081 18.4953C75.6678 19.037 75.7332 19.7225 75.4824 20.3223C75.2316 20.9222 74.6977 21.3572 74.0595 21.4816C73.7104 21.5679 73.4655 21.8815 73.4664 22.2411C73.3732 23.7731 72.8583 25.2495 71.9785 26.5072C70.8821 27.8923 69.2084 28.6946 67.4419 28.6818C65.9007 28.7398 64.3573 28.6946 62.8221 28.5466C60.313 28.4625 58.1761 26.6973 57.6196 24.2493C57.4771 23.8308 57.3794 23.3983 57.3283 22.9591C57.3283 22.1995 57.0993 21.6897 56.1941 21.5336C55.7555 21.4324 55.385 21.1408 55.1837 20.7382C54.9824 20.3356 54.9714 19.8642 55.1536 19.4526C55.6843 18.2768 55.1536 17.2883 55.0288 16.227C54.5547 13.8398 55.0286 11.3619 56.3502 9.31811C56.6036 8.79341 56.725 8.21479 56.704 7.6325C56.7664 6.592 57.0889 5.85324 57.8589 5.73879C58.6497 5.77221 59.3804 5.31812 59.7006 4.59424C59.9815 3.84508 60.8347 3.8867 61.5423 4.24047V4.24047ZM73.2271 17.8814C73.1768 16.9324 73.0691 15.9873 72.9046 15.0513C72.197 12.0858 68.805 10.1713 66.1621 11.2118C65.6712 11.4591 65.0825 11.4067 64.643 11.0765C63.5761 10.2541 62.0889 10.2541 61.0221 11.0765C58.6204 12.4674 57.2319 15.1149 57.4531 17.8814C57.526 19.5046 57.7341 21.1382 57.9214 22.7614C58.0215 25.2721 59.8276 27.3878 62.2915 27.8806C64.1357 28.101 65.9978 28.1289 67.8477 27.9639C70.7924 27.402 72.2386 25.9661 72.6861 22.9903C72.9254 21.3255 73.0398 19.6191 73.2271 17.8814V17.8814ZM73.789 18.0999C73.789 19.078 73.6746 19.9728 73.6226 20.8677C74.4654 20.7324 74.8399 20.4098 74.9336 19.8272C75.0158 19.0482 74.5299 18.3216 73.7786 18.0999H73.789ZM56.7664 21.2214L56.9745 21.0446L56.8808 19.2861C56.8859 19.2099 56.8859 19.1334 56.8808 19.0572C56.7456 18.6202 56.3606 18.4745 56.1629 18.8283C55.9049 19.2825 55.8025 19.8088 55.8716 20.3266C55.9028 20.6388 56.4334 20.8885 56.756 21.1798L56.7664 21.2214Z" fill="black"/>
<path fill-rule="evenodd" clip-rule="evenodd" d="M73.2272 17.8814C73.0503 19.6191 72.9358 21.3255 72.6757 23.0215C72.2387 25.9973 70.7924 27.4332 67.8374 27.9951C65.9966 28.2694 64.1233 28.2413 62.2915 27.9119C59.8276 27.4163 58.0197 25.3036 57.911 22.7926C57.7341 21.1694 57.5156 19.5358 57.4532 17.9127C57.2293 15.1456 58.6185 12.4969 61.0221 11.1078C62.089 10.2854 63.5762 10.2854 64.643 11.1078C65.0807 11.4427 65.6722 11.4954 66.1622 11.2431C68.805 10.2026 72.1867 12.1275 72.9046 15.0825C73.0679 16.0082 73.1756 16.9429 73.2272 17.8814L73.2272 17.8814ZM69.0652 20.2018C68.9661 20.7916 69.3379 21.3584 69.9184 21.5024C70.397 21.5024 70.8445 21.0133 70.8861 20.3786C70.9755 19.7771 70.5995 19.2041 70.0121 19.0468C69.523 19.0468 69.0652 19.5358 69.0652 20.2018V20.2018ZM61.5943 20.2018C61.5943 19.5462 61.1573 18.9532 60.6579 19.0052C59.9711 19.0676 59.8255 19.6087 59.7734 20.1705C59.6897 20.7579 60.0769 21.3091 60.6579 21.4295C61.1365 21.4399 61.5943 20.8365 61.5943 20.1913V20.2018ZM64.9031 24.395C65.5274 24.2921 65.9436 24.2578 66.4431 24.132C66.6616 24.0634 66.828 23.8118 67.0257 23.6403C66.8073 23.549 66.5806 23.4838 66.3494 23.446C65.3818 23.446 64.4141 23.3659 63.4464 23.3545C63.287 23.3667 63.1296 23.4013 62.9782 23.4574C63.0614 23.6403 63.1135 23.9376 63.2383 23.9719C63.8626 24.1663 64.4661 24.3378 64.9031 24.395V24.395ZM60.2521 16.6953C59.8063 16.9039 59.3721 17.1366 58.9515 17.3924C58.837 17.4756 58.8578 17.7462 58.8162 17.9335C58.9931 17.9335 59.2324 17.9335 59.3365 17.871C59.5519 17.6215 59.8652 17.4781 60.1949 17.4781C60.5245 17.4781 60.8379 17.6215 61.0533 17.871C61.1469 17.9647 61.355 17.9439 61.5215 17.9751C61.5215 17.7878 61.5215 17.5069 61.5215 17.434C61.1245 17.1624 60.711 16.9156 60.2833 16.6953L60.2521 16.6953ZM70.3762 16.6953C69.9431 16.9064 69.5227 17.1427 69.1172 17.4028C69.0131 17.4756 69.0444 17.7462 69.0131 17.9231C69.19 17.9231 69.4189 17.9231 69.5334 17.8606C69.7469 17.6116 70.0586 17.4682 70.3866 17.4682C70.7147 17.4682 71.0263 17.6116 71.2398 17.8606C71.3335 17.9543 71.552 17.8606 71.708 17.9231C71.708 17.7358 71.708 17.4548 71.6456 17.3924C71.247 17.1358 70.8336 16.903 70.4074 16.6953L70.3762 16.6953ZM63.9771 21.4338C64.4141 21.6701 64.7367 21.9981 65.0176 21.9457C65.2986 21.8932 65.8188 21.3551 65.7876 21.2501C65.4963 20.3446 64.8199 21.6176 64.4453 20.922L63.9771 21.4338Z" fill="#E5BDB8"/>
<path fill-rule="evenodd" clip-rule="evenodd" d="M73.7785 18.1001C74.5173 18.3243 74.996 19.0379 74.9231 19.8065C74.8294 20.41 74.4549 20.7326 73.6121 20.847C73.6641 19.973 73.7265 19.047 73.7785 18.1001V18.1001Z" fill="#EDBBB6"/>
<path fill-rule="evenodd" clip-rule="evenodd" d="M56.7561 21.1799C56.4336 20.8886 55.9029 20.6389 55.8301 20.2851C55.761 19.7672 55.8634 19.241 56.1214 18.7868C56.3191 18.433 56.7041 18.5787 56.8394 19.0157C56.8496 19.0916 56.8496 19.1686 56.8394 19.2446C56.8394 19.8273 56.9122 20.4204 56.9434 21.003L56.7561 21.1799Z" fill="#EDBBB6"/>
<path fill-rule="evenodd" clip-rule="evenodd" d="M69.0652 20.2018C69.0652 19.5359 69.523 19.0469 70.012 19.0781C70.5862 19.234 70.9586 19.7882 70.886 20.3787C70.886 21.0134 70.397 21.5337 69.9184 21.5024C69.3378 21.3585 68.966 20.7917 69.0652 20.2018H69.0652Z" fill="black"/>
<path fill-rule="evenodd" clip-rule="evenodd" d="M61.5942 20.1915C61.5942 20.8366 61.1364 21.4401 60.6578 21.4193C60.0811 21.2942 59.6993 20.7443 59.7838 20.1602C59.7838 19.5984 59.9711 19.0573 60.6578 18.9845C61.1572 18.9429 61.6047 19.536 61.5942 20.1915V20.1915Z" fill="black"/>
<path fill-rule="evenodd" clip-rule="evenodd" d="M64.9031 24.395C64.4348 24.2807 63.8626 24.1549 63.2383 23.9719C63.1134 23.9719 63.0614 23.6403 62.9781 23.4574C63.1296 23.4013 63.2869 23.3667 63.4464 23.3545C64.414 23.3545 65.3817 23.3545 66.3494 23.446C66.5805 23.4838 66.8073 23.549 67.0257 23.6403C66.828 23.8119 66.6615 24.0634 66.4326 24.132C66.0268 24.2578 65.5586 24.3378 64.9031 24.395V24.395Z" fill="black"/>
<path fill-rule="evenodd" clip-rule="evenodd" d="M60.2832 16.6953C60.7048 16.9166 61.1146 17.1597 61.511 17.4237C61.6046 17.4965 61.511 17.7774 61.511 17.9647C61.3445 17.9647 61.1468 17.9647 61.0427 17.8607C60.8273 17.6112 60.514 17.4678 60.1843 17.4678C59.8547 17.4678 59.5414 17.6112 59.3259 17.8607C59.2219 17.9543 58.9825 17.9127 58.8057 17.9231C58.8057 17.7462 58.8057 17.4653 58.9409 17.3821C59.3753 17.1285 59.8234 16.8992 60.2832 16.6953L60.2832 16.6953Z" fill="black"/>
<path fill-rule="evenodd" clip-rule="evenodd" d="M70.4074 16.6953C70.8447 16.9087 71.2686 17.1484 71.6768 17.4133C71.7808 17.4757 71.6768 17.7566 71.7392 17.9439C71.5831 17.9439 71.3646 17.9439 71.271 17.8815C71.0575 17.6324 70.7458 17.4891 70.4178 17.4891C70.0897 17.4891 69.7781 17.6324 69.5646 17.8815C69.4501 17.9751 69.2212 17.9335 69.0443 17.9543C69.0443 17.767 69.0443 17.4965 69.1484 17.4237C69.5534 17.1564 69.9738 16.9132 70.4074 16.6953L70.4074 16.6953Z" fill="black"/>
<path fill-rule="evenodd" clip-rule="evenodd" d="M64.0083 21.4364L64.4765 20.9211C64.8511 21.6214 65.517 20.3398 65.8188 21.2646C65.8188 21.3571 65.3401 21.912 65.0488 21.9517C64.7575 21.9913 64.4453 21.6742 64.0083 21.4364V21.4364Z" fill="black"/>
<path d="M52.2194 40.4293L56.964 34.051L67.8061 36.4442V37.9529C67.8061 37.9529 80.7395 49.9083 84.3708 51.6771C88.0022 53.446 100.28 53.5396 100.28 53.5396L99.5726 55.3917H101.321C102.951 54.5893 104.903 54.8348 106.284 56.016C106.284 56.016 105.764 50.4389 108.282 51.5002C110.8 52.5615 117.885 56.3698 120.008 59.4704C120.008 59.4704 121.048 59.5849 118.53 60.7191" stroke="#7140B8" stroke-width="1.75"/>
<path d="M106.242 66.9932L105.202 62.9249C101.924 63.7157 99.3541 60.719 99.3541 60.719L98.5529 62.1237C98.5529 62.1237 83.3304 59.2935 80.136 58.2218C76.9417 57.1501 68.8674 49.6377 68.8674 49.6377V68.991" stroke="#7140B8" stroke-width="1.75"/>
<path d="M80.6355 71.155C80.6355 71.155 88.2624 72.414 88.8867 76.9194C89.511 81.4248 81.6032 95.7733 81.6032 95.7733H91.259C91.259 95.7733 93.9123 94.6287 97.1898 88.8644" stroke="#7140B8" stroke-width="1.75"/>
<path d="M127.229 77.5334C127.229 77.5334 133.607 80.5405 136.968 85.1499L130.153 87.2309C130.153 87.2309 138.654 94.5872 134.138 106.803C129.622 119.018 112.62 120.974 104.38 111.142C101.12 107.041 99.8535 101.702 100.925 96.5746L99.4269 96.9283L86.9409 106.584L52.9374 106.449C52.9374 106.449 50.0136 117.405 36.5495 117.405C24.6878 117.405 20.4322 106.449 20.4322 106.449L0.60022 106.667L5.11599 97.0116C5.11599 97.0116 11.359 87.8032 18.8402 85.4204" stroke="#7140B8" stroke-width="1.75"/>
<path fill-rule="evenodd" clip-rule="evenodd" d="M30.4418 106.449H43.4584C42.0972 108.732 39.6008 110.091 36.9449 109.997C32.2106 110.039 31.3158 108.26 30.4418 106.449V106.449Z" stroke="#7140B8" stroke-width="1.75"/>
<path d="M15.7083 81.2583H1.69275C1.33072 81.2583 1.03723 80.9648 1.03723 80.6028V72.7158C1.06442 72.3742 1.3501 72.1112 1.69275 72.1123H15.3857" stroke="#7140B8" stroke-width="1.75"/>
<path d="M15.7083 71.1552H15.2921C14.1428 71.1552 13.2111 70.2235 13.2111 69.0742V42.7287C13.2111 41.5794 14.1428 40.6477 15.2921 40.6477H45.1336C46.2829 40.6477 47.2146 41.5794 47.2146 42.7287V64.3399" stroke="#7140B8" stroke-width="1.75"/>
<path d="M37.8292 72.0605H39.9102" stroke="#7140B8" stroke-width="1.75"/>
<path d="M37.6107 81.2583H39.6917" stroke="#7140B8" stroke-width="1.75"/>
<path d="M48.0157 71.7793C48.5904 71.7793 49.0562 72.0588 49.0562 72.4036V77.0443" stroke="#7140B8" stroke-width="1.75"/>
<path d="M49.129 79.6768V80.4883C49.129 80.6338 49.0187 80.773 48.823 80.8747C48.6273 80.9765 48.3626 81.0322 48.0885 81.0294" stroke="#7140B8" stroke-width="1.75"/>
<path d="M47.2458 80.2387H50.3673" stroke="#7140B8" stroke-width="1.75"/>
<path fill-rule="evenodd" clip-rule="evenodd" d="M115.544 96.5849C114.445 97.7553 114.274 99.5208 115.13 100.88C115.986 102.239 117.652 102.848 119.182 102.362C120.713 101.876 121.722 100.418 121.637 98.814C121.553 97.2103 120.395 95.8663 118.822 95.5444L116.054 87.8551C116.74 87.7275 117.437 87.6648 118.135 87.6678C123.631 87.6778 128.265 91.7647 128.962 97.2159C129.66 102.667 126.203 107.789 120.887 109.182C115.571 110.575 110.047 107.806 107.981 102.714C105.916 97.6212 107.95 91.7867 112.735 89.0829L115.544 96.5849Z" stroke="#7140B8" stroke-width="1.75"/>
<path fill-rule="evenodd" clip-rule="evenodd" d="M61.6983 69.4591V70.9782C61.6904 71.5231 61.9089 72.0468 62.3018 72.4245C62.6823 72.8132 63.2042 73.031 63.7481 73.028L65.5794 73.028V80.3115C65.5794 82.8607 66.2557 84.7648 67.6604 86.0134C69.065 87.262 71.0628 87.8863 73.7681 87.8863C77.5972 87.8863 79.5117 86.61 79.5117 84.0573C79.5568 83.4643 79.3991 82.8736 79.0643 82.3821C78.6283 81.9356 78.008 81.7199 77.3891 81.7994L76.5879 81.7994C76.3492 81.8231 76.1087 81.8231 75.8699 81.7994C73.997 81.7994 73.0606 81.0815 73.0606 79.656V73.028H77.1186C78.8146 73.028 79.6574 72.0395 79.6574 70.0834C79.6519 69.5887 79.589 69.0964 79.4701 68.6162C79.262 67.6902 78.4296 67.2324 77.0665 67.2324H73.0606V64.3814C73.1742 63.3531 72.8321 62.3266 72.1241 61.5721C71.1804 60.943 70.0481 60.6599 68.9194 60.7709C68.3512 60.7673 67.7838 60.8126 67.2234 60.9062C66.7273 60.9415 66.2748 61.2022 65.9956 61.6137C65.6949 62.1113 65.5499 62.6875 65.5794 63.2681L65.5794 67.3677H63.7065C63.1705 67.3525 62.6529 67.5641 62.281 67.9503C61.8925 68.338 61.6816 68.8689 61.6983 69.4175V69.4591ZM49.9823 88.0008L51.5847 88.084L53.3639 88.0008C54.7533 88.0045 56.1197 87.6459 57.3282 86.9603C58.2506 86.391 58.7952 85.3693 58.7537 84.2862C58.7828 83.6667 58.631 83.052 58.3167 82.5173C57.9911 82.0285 57.4241 81.757 56.8392 81.8098C56.402 81.7921 55.9652 81.852 55.549 81.9867C54.4483 82.2934 53.3099 82.444 52.1673 82.4341C50.6581 82.4365 49.1804 82.0029 47.9117 81.1855C46.775 80.5909 45.916 79.5751 45.5185 78.3553L57.0161 78.3553C57.9067 78.4105 58.7849 78.124 59.4716 77.5542C60.1031 76.9642 60.4769 76.1493 60.5121 75.2859C60.5601 75.0042 60.5776 74.7181 60.5642 74.4327C60.5874 72.1571 59.7428 69.9582 58.2022 68.2833C57.1508 67.1875 55.8723 66.3352 54.4564 65.7861C52.9205 65.1581 51.2775 64.833 49.6181 64.8288C46.8706 64.73 44.1861 65.6657 42.0953 67.4509C39.993 69.4393 38.7719 72.1849 38.7033 75.0778C38.6748 75.5525 38.6748 76.0285 38.7033 76.5033C38.5849 79.439 39.6712 82.2957 41.7103 84.4111C43.9662 86.5591 46.9225 87.8192 50.0343 87.9592L49.9823 88.0008ZM47.1313 71.2383C47.8243 70.6831 48.6884 70.3852 49.5764 70.3955C50.5998 70.3658 51.5938 70.7395 52.3442 71.436C53.0276 72.0186 53.4102 72.8795 53.3847 73.7771L45.6746 73.6939C45.8857 72.7476 46.4054 71.8984 47.1521 71.2799L47.1313 71.2383ZM35.3633 67.1804C32.9708 65.5664 30.1321 64.7439 27.2474 64.8288C23.6542 64.8288 20.831 65.7549 18.7777 67.607C16.6339 69.6443 15.4926 72.5202 15.6562 75.4732C15.6562 78.9588 16.6967 81.6225 18.6841 83.4954C19.585 84.3224 20.6479 84.9531 21.8056 85.3475C23.0412 85.7861 24.3443 86.0045 25.6554 85.9926C26.4192 86.0175 27.1833 85.9582 27.9341 85.8157C28.9122 85.6701 29.4636 85.5972 29.5781 85.5972C29.9423 85.5972 30.1192 85.7013 30.1192 85.9094C30.1192 88.1707 28.3642 89.2979 24.8542 89.291C23.2987 89.2626 21.76 88.9633 20.3072 88.4066C19.8878 88.2169 19.4354 88.1108 18.9754 88.0944C18.4318 88.065 17.9161 88.3369 17.6332 88.802C17.3255 89.3431 17.1742 89.9591 17.1961 90.5812C17.1961 93.668 20.0922 95.2149 25.8843 95.2219C28.8513 95.388 31.7866 94.5404 34.2083 92.8183C36.2465 91.194 37.3807 88.6896 37.257 86.0863V70.4788C37.2823 69.8253 37.1275 69.1774 36.8096 68.6059C36.4318 68.0142 35.9315 67.5103 35.3425 67.1283L35.3633 67.1804ZM30.0151 77.7519C30.0151 79.1774 29.5573 79.9889 28.6312 80.197C28.1383 80.3406 27.6248 80.4004 27.1121 80.3739C26.0109 80.437 24.9452 79.9737 24.2403 79.1253C23.4917 78.0758 23.1246 76.8018 23.1998 75.5148C23.1231 74.2498 23.5241 73.0021 24.3236 72.0187C25.1777 71.1534 26.3675 70.7048 27.5803 70.7909C27.9969 70.7884 28.4124 70.8338 28.8185 70.9262C29.5989 71.1031 29.9839 71.8834 29.9839 73.2465L30.0151 77.7519Z" fill="#6E3CB7"/>
<path fill-rule="evenodd" clip-rule="evenodd" d="M126.064 85.639V61.8323C126.17 60.8166 125.82 59.806 125.106 59.075C124.15 58.4483 123.009 58.1658 121.87 58.2738L120.892 58.2218C120.274 58.1946 119.664 58.3699 119.155 58.7212C118.63 59.245 118.384 59.9853 118.489 60.719V84.5257C118.382 85.5414 118.733 86.552 119.446 87.283C120.401 87.9036 121.537 88.1857 122.672 88.0842H123.712C124.319 88.1356 124.925 87.9777 125.429 87.6368C125.964 87.1188 126.219 86.3764 126.116 85.639H126.064ZM117.147 85.639V61.8323C117.258 60.8161 116.906 59.8036 116.189 59.075C115.236 58.4491 114.099 58.1665 112.964 58.2738L111.986 58.2218C111.364 58.1931 110.75 58.3685 110.238 58.7212C109.717 59.2476 109.471 59.9858 109.572 60.719V84.5257C109.465 85.5414 109.816 86.552 110.529 87.283C111.488 87.9037 112.627 88.1857 113.765 88.0842H114.743C115.35 88.1382 115.957 87.9801 116.46 87.6368C116.995 87.1188 117.25 86.3764 117.147 85.639H117.147ZM105.483 67.4719C103.644 66.0845 101.001 65.3909 97.5539 65.3909C95.3882 65.3059 93.2255 65.6234 91.1757 66.3273C90.4972 66.5751 89.8923 66.9903 89.4172 67.5343C89.0481 68.067 88.8685 68.7082 88.9074 69.3552C88.8869 69.9939 89.0571 70.6242 89.3964 71.1656C89.694 71.6387 90.2219 71.9165 90.7803 71.894C91.2168 71.8666 91.6493 71.7933 92.0705 71.6755C93.5104 71.2899 94.9918 71.0803 96.4822 71.0512C99.4303 71.0512 100.901 71.8524 100.894 73.4548V73.7669L95.0775 74.4016C93.0205 74.4908 91.0422 75.2181 89.4172 76.4826C88.1446 77.7132 87.4753 79.4397 87.5859 81.2065C87.4772 83.3599 88.4984 85.4143 90.2808 86.6275C92.0844 87.8553 94.6336 88.4692 97.9285 88.4692C101.466 88.4692 104.171 87.8969 106.086 86.7316C106.741 86.3966 107.31 85.9161 107.751 85.3269C108.105 84.8101 108.287 84.1947 108.271 83.5684V73.5588C108.408 71.193 107.364 68.9132 105.483 67.4719V67.4719ZM99.6557 82.7569C99.0754 82.8613 98.4869 82.9136 97.8972 82.9129C95.8787 82.9129 94.8694 82.247 94.8694 80.9152C94.8694 79.781 95.8162 79.1567 97.7203 79.0423L100.925 78.7717V82.3407C100.533 82.5607 100.102 82.702 99.6557 82.7569H99.6557Z" fill="#6E3CB7"/>
</g>
</svg>
