<svg width="900" height="491" viewBox="0 0 900 491" fill="none" xmlns="http://www.w3.org/2000/svg">
<g clip-path="url(#clip0_7258_87881)">
<path d="M170.684 83.5474V213.759C170.684 225.514 160.244 234.973 148.822 234.973C143.158 234.997 137.714 232.781 133.679 228.806C129.644 224.832 127.345 219.422 127.284 213.759V207.561C124.671 217.677 107.376 235.297 78.9826 235.297C43.0856 235.297 0 207.561 0 148.162C0 90.0784 43.4099 61.3516 78.9826 61.3516C102.142 61.3516 120.753 73.7557 127.284 89.1428V83.5845C127.284 72.1623 137.075 62.3706 148.822 62.3706C160.244 62.3335 170.684 72.1253 170.684 83.5474ZM129.238 148.162C129.238 111.283 105.088 97.9062 86.8105 97.9062C65.2723 97.9062 42.7521 114.877 42.7521 148.162C42.7521 181.78 65.2723 198.427 86.8105 198.427C105.088 198.427 129.238 185.041 129.238 148.162Z" fill="#F57B00"/>
<path d="M199.718 234.65C194.054 234.675 188.61 232.458 184.575 228.484C180.54 224.509 178.241 219.1 178.18 213.436V21.2139C178.18 9.79173 187.971 0 199.718 0C205.313 0.0998932 210.651 2.36698 214.608 6.32392C218.565 10.2809 220.832 15.6189 220.932 21.2139V213.436C220.888 219.049 218.639 224.42 214.67 228.389C210.701 232.358 205.331 234.607 199.718 234.65Z" fill="#F57B00"/>
<path d="M252.249 234.65C246.585 234.675 241.142 232.458 237.106 228.484C233.071 224.509 230.772 219.1 230.711 213.436V21.2139C230.711 9.79173 240.503 0 252.249 0C257.844 0.0998932 263.182 2.36698 267.139 6.32392C271.096 10.2809 273.363 15.6189 273.463 21.2139V213.436C273.419 219.049 271.17 224.42 267.201 228.389C263.232 232.358 257.862 234.607 252.249 234.65Z" fill="#F57B00"/>
<path d="M444.791 141.311C444.791 158.292 435.332 164.165 418.037 164.165L321.111 163.479C325.02 187.306 343.955 200.034 367.772 200.034C379.528 200.034 385.067 197.422 394.859 193.179C400.742 190.567 405.309 187.954 410.858 187.954C419.992 187.954 425.541 194.439 425.541 202.647C425.541 207.862 423.253 213.763 415.091 220.59C403.048 229.076 386.707 234.625 366.142 234.625C322.741 234.625 276.719 207.862 276.719 148.472C276.719 89.7215 325.353 61.3281 362.557 61.3281C399.76 61.3281 444.791 90.7313 444.791 141.311ZM321.111 134.141H402.696C399.435 109.009 381.158 98.5684 362.557 98.5684C343.955 98.5684 324.019 109.009 321.111 134.141Z" fill="#C1272D"/>
<path d="M608.935 83.5474V213.759C608.935 225.514 598.485 234.973 587.063 234.973C581.399 234.997 575.955 232.781 571.92 228.806C567.885 224.832 565.586 219.422 565.525 213.759V207.561C562.922 217.677 545.617 235.297 517.224 235.297C481.326 235.297 438.25 207.561 438.25 148.162C438.25 90.0784 481.651 61.3516 517.224 61.3516C540.383 61.3516 559.003 73.7557 565.525 89.1428V83.5845C565.525 72.1623 575.317 62.3706 587.063 62.3706C598.485 62.3335 608.935 72.1253 608.935 83.5474ZM567.489 148.162C567.489 111.283 543.338 97.9062 525.061 97.9062C503.522 97.9062 481.002 114.877 481.002 148.162C481.002 181.78 503.522 198.427 525.061 198.427C543.338 198.427 567.489 185.041 567.489 148.162Z" fill="#C1272D"/>
<path d="M730.963 85.1823C732.927 88.1189 736.188 92.6859 736.188 99.541C736.188 109.981 729.008 115.53 719.513 115.53C713.315 115.53 707.118 113.251 701.569 106.396C695.038 98.8926 687.534 95.2798 678.067 95.2798C665.338 95.2798 657.835 101.486 657.835 110.62C657.835 115.845 659.789 122.663 674.806 126.943L694.714 132.816C720.819 139.996 742.691 152.391 742.691 181.442C742.691 217.339 709.397 234.634 675.454 234.634C646.088 234.634 628.459 222.23 619.325 211.141C617.695 208.853 610.516 200.692 610.516 190.576C610.516 183.396 615.083 174.262 626.829 174.262C635.639 174.262 640.539 179.821 644.43 184.703C653.888 196.449 664.338 199.719 675.427 199.719C691.425 199.719 700.235 192.864 700.235 183.721C700.235 178.162 696.641 170.992 680.976 166.425L662.374 160.867C629.414 151.733 615.713 134.113 615.713 110.935C615.713 78.2993 645.736 61.3281 676.733 61.3281C698.984 61.3559 720.198 70.175 730.963 85.1823Z" fill="#C1272D"/>
<path d="M900.012 81.5918C899.928 85.0164 899.032 88.3723 897.399 91.3836L812.867 281.642C808.3 292.082 800.472 296.659 792.311 296.659C781.194 296.659 773.385 287.849 773.385 277.399C773.385 273.481 774.691 270.22 775.664 267.608L794.275 225.189L733.569 91.3836C732.587 88.7712 731.281 85.5011 731.281 81.5918C731.295 79.039 731.813 76.5141 732.805 74.1623C733.798 71.8104 735.246 69.6782 737.067 67.8882C738.887 66.0982 741.043 64.6858 743.411 63.7324C745.779 62.7789 748.312 62.3032 750.865 62.3325C759.026 62.3325 766.854 66.8995 771.421 77.349L815.155 178.518L859.872 77.3212C864.439 66.8717 871.915 62.3047 880.104 62.3047C891.526 62.3325 900.012 71.1423 900.012 81.5918Z" fill="#C1272D"/>
<path d="M199.375 18.5391H189.472C188.771 18.5391 188.203 19.1073 188.203 19.8082V45.9134C188.203 46.6143 188.771 47.1825 189.472 47.1825H199.375C200.076 47.1825 200.644 46.6143 200.644 45.9134V19.8082C200.644 19.1073 200.076 18.5391 199.375 18.5391Z" fill="white"/>
<path d="M251.735 18.5391H241.832C241.131 18.5391 240.562 19.1073 240.562 19.8082V45.9134C240.562 46.6143 241.131 47.1825 241.832 47.1825H251.735C252.435 47.1825 253.004 46.6143 253.004 45.9134V19.8082C253.004 19.1073 252.435 18.5391 251.735 18.5391Z" fill="white"/>
<path d="M309.781 99.4708C309.213 99.4967 308.655 99.312 308.215 98.952C307.985 98.7631 307.795 98.5307 307.656 98.2682C307.516 98.0057 307.429 97.7182 307.401 97.4221C307.373 97.1261 307.403 96.8274 307.49 96.5431C307.577 96.2588 307.72 95.9944 307.909 95.7653C318.581 82.7961 334.932 77.7844 335.627 77.5806C335.911 77.4949 336.21 77.466 336.506 77.4957C336.802 77.5254 337.089 77.6131 337.351 77.7537C337.613 77.8943 337.844 78.0852 338.032 78.3154C338.221 78.5456 338.362 78.8105 338.447 79.0952C338.533 79.3799 338.562 79.6787 338.532 79.9745C338.503 80.2703 338.415 80.5574 338.274 80.8193C338.134 81.0813 337.943 81.3129 337.713 81.5011C337.482 81.6893 337.217 81.8303 336.933 81.916C336.775 81.916 321.184 86.7888 311.411 98.6464C311.21 98.888 310.962 99.0858 310.681 99.2276C310.401 99.3694 310.094 99.4522 309.781 99.4708Z" fill="white" stroke="white" stroke-width="2" stroke-miterlimit="10"/>
<path d="M475.66 92.1451C475.468 92.134 475.28 92.0839 475.108 91.9979C474.936 91.9119 474.783 91.7918 474.659 91.6449C474.375 91.301 474.219 90.8685 474.219 90.4221C474.219 89.9756 474.375 89.5432 474.659 89.1993C482.626 80.093 493.807 77.4065 494.28 77.2953C494.485 77.2599 494.696 77.2675 494.898 77.3176C495.101 77.3676 495.291 77.459 495.456 77.5861C495.621 77.7132 495.758 77.8731 495.859 78.0559C495.959 78.2386 496.021 78.4401 496.04 78.6478C496.131 79.0754 496.059 79.5217 495.838 79.8988C495.617 80.276 495.262 80.5567 494.845 80.6859C494.734 80.6859 484.071 83.2983 476.771 91.6356C476.637 91.7992 476.467 91.93 476.274 92.0183C476.082 92.1066 475.871 92.1499 475.66 92.1451Z" fill="white" stroke="white" stroke-width="2" stroke-miterlimit="10"/>
<path d="M638.9 88.0805C638.711 88.0444 638.531 87.97 638.372 87.8616C638.213 87.7532 638.077 87.6133 637.974 87.4505C637.74 87.0701 637.645 86.6199 637.705 86.1772C637.766 85.7344 637.979 85.3266 638.308 85.0234C647.386 77.0288 658.808 75.7597 659.29 75.7597C659.499 75.7492 659.708 75.7824 659.903 75.8573C660.098 75.9321 660.276 76.0468 660.424 76.1942C660.572 76.3416 660.688 76.5184 660.764 76.7132C660.84 76.9079 660.874 77.1164 660.865 77.3253C660.897 77.7583 660.767 78.1877 660.499 78.5301C660.232 78.8724 659.848 79.1034 659.42 79.178C659.309 79.178 648.405 80.3731 640.096 87.71C639.936 87.8567 639.747 87.9662 639.54 88.0303C639.333 88.0944 639.115 88.1115 638.9 88.0805Z" fill="white" stroke="white" stroke-width="2" stroke-miterlimit="10"/>
<path d="M30.8925 99.4708C30.3273 99.4971 29.7726 99.3122 29.3362 98.952C29.1054 98.7639 28.9143 98.5318 28.7739 98.2692C28.6335 98.0067 28.5465 97.7189 28.5181 97.4225C28.4897 97.1262 28.5203 96.827 28.6083 96.5426C28.6962 96.2581 28.8397 95.9939 29.0305 95.7653C39.7023 82.7961 56.0436 77.7844 56.7383 77.5806C57.023 77.4949 57.3218 77.466 57.6176 77.4957C57.9134 77.5254 58.2005 77.6131 58.4625 77.7537C58.7244 77.8943 58.9561 78.0852 59.1442 78.3154C59.3324 78.5456 59.4734 78.8105 59.5592 79.0952C59.6449 79.3799 59.6738 79.6787 59.6441 79.9745C59.6144 80.2703 59.5267 80.5574 59.3861 80.8193C59.2454 81.0813 59.0546 81.3129 58.8244 81.5011C58.5942 81.6893 58.3292 81.8303 58.0445 81.9161C57.8871 81.9161 42.2962 86.7888 32.5229 98.6464C32.3227 98.8888 32.0745 99.0873 31.794 99.2291C31.5134 99.371 31.2064 99.4533 30.8925 99.4708Z" fill="white" stroke="white" stroke-width="2" stroke-miterlimit="10"/>
<path d="M747.599 86.6272C750.315 86.6272 752.518 84.4248 752.518 81.7081C752.518 78.9914 750.315 76.7891 747.599 76.7891C744.882 76.7891 742.68 78.9914 742.68 81.7081C742.68 84.4248 744.882 86.6272 747.599 86.6272Z" fill="white" stroke="white" stroke-width="2" stroke-miterlimit="10"/>
<path d="M840.296 434.51C840.037 432.277 840.046 430.008 839.713 427.784C836.091 403.161 822.862 385.532 800.536 374.786C791.277 370.441 781.114 368.37 770.893 368.746C769.318 368.746 768.197 368.533 767.558 366.792C760.962 348.968 754.317 331.167 747.622 313.387C747.075 311.923 747.15 311.182 748.817 310.7C753.282 309.385 756.626 305.716 756.802 301.056C756.997 295.711 757.043 290.338 756.802 284.993C756.677 282.244 755.507 279.646 753.53 277.731C751.553 275.817 748.919 274.729 746.168 274.692C742.694 274.627 739.211 274.618 735.737 274.692C734.981 274.712 734.237 274.494 733.612 274.068C732.987 273.643 732.512 273.031 732.253 272.32C730.957 268.735 729.613 265.169 728.27 261.602C726.896 257.909 724.245 254.829 720.798 252.919C717.351 251.01 713.334 250.396 709.474 251.19H709.335C697.607 253.626 685.879 255.998 673.762 255.145C669.909 254.877 666.018 255.081 662.146 255.145C659.034 255.155 656.011 256.176 653.53 258.054C652.582 258.712 651.805 259.587 651.266 260.607C650.726 261.627 650.439 262.761 650.429 263.915C650.419 265.069 650.687 266.208 651.208 267.237C651.73 268.266 652.492 269.155 653.428 269.828C655.38 271.4 657.732 272.395 660.219 272.7H660.497C677.375 274.349 691.623 285.845 695.56 302.344C700.905 324.725 705.472 347.245 707.417 370.275C707.982 377.084 708.112 383.958 706.547 390.72C705.138 396.834 702.647 398.946 696.468 398.9C683.776 398.798 671.076 398.817 658.375 398.613C635.966 398.261 613.548 398.418 591.139 398.344C587.22 398.344 583.672 395.389 583.496 391.47C583.401 387.044 584.059 382.633 585.442 378.427C588.564 367.987 592.065 357.658 594.983 347.171C596.188 342.854 598.133 340.39 602.45 338.519C617.003 332.192 621.042 315.628 611.102 304.104C607.291 299.573 602.073 296.446 596.28 295.22C593.832 294.646 591.318 294.403 588.805 294.498H391.052C390.255 294.498 389.458 294.498 388.662 294.498H208.084C191.01 294.563 185.684 296.026 179.014 305.485C178.505 306.25 177.818 306.88 177.01 307.319C176.203 307.758 175.301 307.993 174.382 308.004C165.378 307.93 156.364 308.004 147.36 307.958C145.016 307.883 142.688 308.369 140.569 309.375C134.668 312.367 133.946 319.853 138.911 324.197C141.116 326.133 143.636 326.597 146.415 326.587C163.979 326.587 181.546 326.587 199.116 326.587C201.099 326.503 203.083 326.706 205.008 327.189C208.324 328.116 210.816 330.2 211.696 333.609C212.623 337.222 211.233 340.094 208.287 342.336C206.19 343.778 203.666 344.47 201.126 344.3C189.689 344.3 178.264 344.3 166.851 344.3C164.782 344.307 162.715 344.44 160.662 344.698C158.503 344.992 156.507 346.011 155.002 347.588C153.497 349.165 152.573 351.207 152.381 353.378C152.31 355.564 153.029 357.703 154.405 359.404C155.781 361.105 157.722 362.254 159.875 362.642C161.551 362.985 163.259 363.152 164.97 363.142C185.776 363.185 206.583 363.207 227.389 363.207C228.651 363.176 229.914 363.228 231.169 363.364C235.328 363.957 238.821 367.487 239.21 371.359C239.599 375.231 236.866 378.77 232.669 380.243C230.757 380.778 228.77 380.994 226.787 380.882H114.9C112.917 380.882 110.907 380.78 109.036 381.549C105.766 382.892 103.376 385.097 102.727 388.71C102.042 392.499 103.653 395.417 106.609 397.594C108.804 399.196 111.352 399.567 114.02 399.567C140.051 399.53 166.085 399.53 192.122 399.567C193.299 399.567 194.475 399.521 195.633 399.623C200.209 399.993 204.128 403.439 204.702 407.552C205.24 411.341 202.516 415.139 198.218 416.723C196.656 417.169 195.028 417.332 193.41 417.205C175.568 417.205 157.729 417.205 139.893 417.205C137.612 417.108 135.334 417.457 133.186 418.233C129.481 419.706 126.887 423.403 127.017 426.96C127.162 428.855 127.873 430.662 129.057 432.149C130.241 433.635 131.844 434.732 133.659 435.297C136.081 436.008 138.603 436.32 141.125 436.224L382.344 436.149C385.227 436.504 388.128 436.68 391.033 436.677H397.416C398.861 436.841 400.315 436.912 401.77 436.891H472.739C472.656 438.048 472.6 439.216 472.6 440.402C472.779 453.525 478.118 466.051 487.461 475.268C496.805 484.485 509.402 489.653 522.527 489.653C535.652 489.653 548.249 484.485 557.593 475.268C566.936 466.051 572.275 453.525 572.454 440.402C572.454 439.216 572.398 438.048 572.315 436.891H618.523C639.879 436.891 661.228 436.891 682.572 436.891C696.06 436.891 709.551 436.857 723.045 436.789C722.953 437.993 722.897 439.197 722.897 440.429C723.076 453.553 728.415 466.078 737.758 475.296C747.102 484.513 759.699 489.681 772.824 489.681C785.949 489.681 798.546 484.513 807.89 475.296C817.233 466.078 822.572 453.553 822.751 440.429C822.751 439.225 822.695 438.039 822.612 436.853H835.248C836.174 436.853 837.045 436.853 837.943 436.853C839.639 436.946 840.5 436.353 840.296 434.51Z" fill="#C1272D"/>
<path d="M283.427 421.355C279.62 419.882 277.128 416.807 277.128 412.712C277.14 410.306 278.101 408.001 279.803 406.3C281.505 404.598 283.809 403.637 286.216 403.624C287.474 403.611 288.721 403.863 289.875 404.366C296.672 407.502 304.076 409.102 311.561 409.053C326.8 409.053 333.979 401.716 333.979 387.654V383.846C327.384 391.758 320.204 396.593 308.337 396.593C290.023 396.593 273.469 383.263 273.469 359.964V359.677C273.469 336.231 290.31 323.039 308.337 323.039C320.501 323.039 327.68 328.162 333.683 334.767V334.619C333.693 333.159 333.99 331.715 334.558 330.37C335.125 329.025 335.952 327.805 336.991 326.78C338.031 325.755 339.261 324.944 340.614 324.394C341.966 323.845 343.414 323.567 344.874 323.576C346.333 323.586 347.777 323.883 349.122 324.451C350.467 325.019 351.687 325.846 352.712 326.885C353.738 327.924 354.549 329.155 355.098 330.507C355.648 331.86 355.926 333.307 355.916 334.767V385.31C355.916 399.372 352.553 409.637 345.957 416.223C338.63 423.551 327.347 426.784 312.108 426.784C302.285 426.86 292.542 425.016 283.427 421.355ZM333.979 359.964V359.677C333.979 348.968 325.642 341.502 314.785 341.502C303.928 341.502 295.739 348.968 295.739 359.677V359.964C295.739 370.803 303.946 378.131 314.785 378.131C325.624 378.131 333.979 370.664 333.979 359.964Z" fill="white"/>
<path d="M353.414 364.207V363.92C353.414 341.363 371.571 323.039 396.027 323.039C420.354 323.039 438.372 341.066 438.372 363.624V363.92C438.372 386.477 420.196 404.792 395.759 404.792C371.432 404.792 353.414 386.783 353.414 364.207ZM416.408 364.207V363.92C416.408 352.35 408.07 342.234 395.74 342.234C382.993 342.234 375.36 352.053 375.36 363.624V363.92C375.36 375.49 383.697 385.606 396.018 385.606C408.793 385.606 416.417 375.787 416.417 364.207H416.408Z" fill="white"/>
<path d="M435.552 307.507C435.116 303.255 437.46 300.031 441.416 300.031H455.774C459.73 300.031 462.074 303.255 461.629 307.507L455.33 362.589C454.894 366.554 452.254 369.074 448.595 369.074C444.936 369.074 442.296 366.582 441.851 362.589L435.552 307.507ZM448.595 378.708C455.923 378.708 461.342 384.137 461.342 391.159V391.464C461.342 398.486 455.923 403.915 448.595 403.915C441.267 403.915 435.848 398.486 435.848 391.464V391.159C435.848 384.137 441.267 378.708 448.595 378.708Z" fill="white"/>
</g>
<defs>
<clipPath id="clip0_7258_87881">
<rect width="900" height="490.32" fill="white"/>
</clipPath>
</defs>
</svg>
